<svg xmlns="http://www.w3.org/2000/svg" xmlns:xlink="http://www.w3.org/1999/xlink" viewBox="0 0 65 34" fill="#fff" fill-rule="evenodd" stroke="#000" stroke-linecap="round" stroke-linejoin="round"><use xlink:href="#A" x=".5" y=".5"/><symbol id="A" overflow="visible"><g stroke="none" fill-rule="nonzero"><path d="M24.693 7.97l5.624 2.392c-5.883 2.392-11.636 5.236-17.067 8.47-1.8-.97-3.75-1.875-5.624-2.715 5.495-3.103 11.184-5.883 17.067-8.145m-7.045-2.47A96.76 96.76 0 0 0 0 13.068c1.745.646 3.556 1.358 5.3 2.07 5.43-3.168 11.184-5.883 17.13-8.016-1.552-.582-3.168-1.1-4.784-1.616" fill="#36c"/><path d="M37.558 7.767C32.7 5.44 27.732 3.5 22.56 1.884c-1.8.517-3.62 1.1-5.366 1.68 5.3 1.552 10.473 3.556 15.45 5.947 1.552-.582 3.232-1.228 4.913-1.745m7.823-2.4C40.467 3.233 35.36 1.423 30.123 0a59.77 59.77 0 0 0-4.913 1.164c5.172 1.487 10.214 3.426 15.063 5.7 1.68-.517 3.426-1.034 5.107-1.487M58.05 9.63C45.638 13.78 34.068 19.727 23.594 27.226c2.586 1.616 5.172 3.297 7.693 5.107 9.89-7.822 20.88-14.417 32.71-19.33-2.004-1.228-3.943-2.327-5.947-3.362M49.518 5.57c-12.865 3.426-24.954 8.92-35.88 16.162 2.457 1.228 4.848 2.52 7.24 3.88C31.546 18.24 43.44 12.486 56.11 8.67c-2.173-1.087-4.37-2.122-6.594-3.103" fill="#e2173e"/></g></symbol></svg>