<svg xmlns="http://www.w3.org/2000/svg" width="100" height="100" viewBox="3 48 100 100">
	<path d="M52.979 135.844c21.796 0 39.467-17.67 39.467-39.466s-17.67-39.466-39.467-39.466-39.467 17.67-39.467 39.466 17.67 39.466 39.467 39.466z" fill="#a70b52" />
	<path fill="#fff" d="M62.589 110.267h-8.173v-30.89h-3.031v33.938h3.031v-.02h8.173z" />
	<path d="M82.989 97.642H62.637v-3.031H85.97c.031.586.046 1.173.046 1.767 0 18.247-14.792 33.038-33.038 33.038S19.94 114.625 19.94 96.378 34.732 63.34 52.979 63.34c.481 0 .961.01 1.438.031l-.004 3.008a31.023 31.023 0 0 0-1.434-.033c-16.586 0-30.033 13.446-30.033 30.032 0 16.587 13.446 30.032 30.033 30.032 16.134 0 29.296-12.722 30.002-28.683l.008-.085z" fill="#fff" />
	<path d="M40.655 88.521a4.642 4.642 0 1 0 0-9.285 4.642 4.642 0 0 0 0 9.285z" fill="#fff" />
</svg>
